PathFileType  4	(X/Y/Z) C:\Users\antoi\Documents\MyRepositories\mobilecap\ResultsAnalysis
DataRate	CameraRate	NumFrames	NumMarkers	Units	OrigDataRate	OrigDataStartFrame	OrigNumFrames
100.0	100.0	4	51	mm	100.0	226	301
Frame#	Time	r_knee			r_shank_antsup			r_ankle			r_calc			r_5meta			r_toe			L_knee			L_shank_antsup			L_ankle			L_calc			L_5meta			L_toe			r_sh2			r_sh3			r_sh4			L_sh2			L_sh3			r_thigh1			r_thigh2			r_thigh3			r_thigh4			r_thigh5			L_thigh1			L_thigh2			L_thigh3			L_thigh4			r.ASIS			r.PSIS			L.ASIS			L.PSIS			C7			R_Shoulder			L_Shoulder			R_Sternum			L_Sternum			R_humerus			R_elbow_med			R_elbow_lat			R_forearm			R_wrist_radius			R_wrist_ulna			L_humerus			L_elbow_med			L_elbow_lat			L_forearm			L_wrist_radius			L_wrist_ulna			R_HJC			L_HJC			R_HJC_reg			L_HJC_reg			
		X1	Y1	Z1	X2	Y2	Z2	X3	Y3	Z3	X4	Y4	Z4	X5	Y5	Z5	X6	Y6	Z6	X7	Y7	Z7	X8	Y8	Z8	X9	Y9	Z9	X10	Y10	Z10	X11	Y11	Z11	X12	Y12	Z12	X13	Y13	Z13	X14	Y14	Z14	X15	Y15	Z15	X16	Y16	Z16	X17	Y17	Z17	X18	Y18	Z18	X19	Y19	Z19	X20	Y20	Z20	X21	Y21	Z21	X22	Y22	Z22	X23	Y23	Z23	X24	Y24	Z24	X25	Y25	Z25	X26	Y26	Z26	X27	Y27	Z27	X28	Y28	Z28	X29	Y29	Z29	X30	Y30	Z30	X31	Y31	Z31	X32	Y32	Z32	X33	Y33	Z33	X34	Y34	Z34	X35	Y35	Z35	X36	Y36	Z36	X37	Y37	Z37	X38	Y38	Z38	X39	Y39	Z39	X40	Y40	Z40	X41	Y41	Z41	X42	Y42	Z42	X43	Y43	Z43	X44	Y44	Z44	X45	Y45	Z45	X46	Y46	Z46	X47	Y47	Z47	X48	Y48	Z48	X49	Y49	Z49	X50	Y50	Z50	X51	Y51	Z51	

226	2.25000000	9.41675	399.91192	-367.76817	-15.95614	373.93690	-340.62786	-241.17664	112.56549	-391.90472	-318.20624	80.77356	-442.33275	-146.55656	40.44641	-341.63290	-97.43532	52.44776	-393.84918	-7.73900	410.62949	-741.48164	-0.85446	329.64477	-752.75431	-229.08462	108.24943	-728.93260	-305.72940	71.52109	-684.71228	-130.18569	41.27879	-765.00370	-82.64041	54.28005	-710.12823	-84.69573	279.19640	-339.88146	42.54827	337.97765	-375.38709	-26.32364	246.77785	-392.49396	-67.74140	389.66698	-760.24766	-139.02384	288.11361	-753.55085	-213.69066	567.07410	-338.39140	-114.44561	511.00873	-331.24723	-75.05202	539.80183	-360.68798	-184.50821	605.09703	-437.62881	-82.41495	564.08995	-423.92969	-247.36490	592.34488	-721.66819	-132.40363	512.21542	-746.11377	-311.71134	498.79446	-715.09812	-194.12986	423.99728	-706.95090	-222.71129	646.27055	-416.35003	-402.15634	719.83380	-483.98250	-236.50866	624.46899	-653.70131	-405.09171	717.44188	-580.06669	-59.56441	1075.17848	-547.00200	-17.84404	1018.75742	-403.35441	-31.41517	991.96900	-695.84658	-26.17064	931.07909	-528.74864	-28.10110	924.75966	-557.04073	-3.47064	803.73151	-305.18043	-61.01385	692.23136	-320.40250	-12.47844	710.55490	-270.94675	114.51325	663.29195	-320.72637	193.23687	636.83566	-380.44357	192.07463	605.48569	-348.71145	-43.24173	791.56371	-808.22872	-89.62916	669.03149	-794.93803	-60.13952	689.41813	-851.07373	70.81217	626.64219	-819.26961	160.78683	595.63347	-772.24557	143.02123	555.50784	-781.87475	-314.92681	582.39940	-441.75570	-336.42792	580.80567	-631.20225	-310.90779	583.56433	-445.09746	-315.71397	579.64311	-602.55032	
227	2.26000000	11.86872	401.02550	-369.73049	-13.84926	375.00041	-342.69769	-239.62893	113.71395	-392.37222	-317.24161	83.46021	-442.92911	-146.10629	41.01586	-341.92783	-96.96150	52.51912	-394.04379	-6.13511	411.17762	-741.72792	0.34134	329.91011	-752.85661	-228.64949	108.96119	-727.88551	-305.11221	72.87702	-683.41870	-130.26240	41.40991	-764.51345	-82.35869	54.23917	-710.02079	-83.01170	281.01525	-341.12486	44.71014	338.96389	-377.25884	-24.74011	248.11018	-393.79490	-66.33559	390.12657	-759.83641	-137.99268	288.79097	-752.09460	-208.45787	571.84842	-339.40682	-109.98866	514.11032	-332.48167	-70.12051	542.54167	-361.75880	-178.62258	610.85273	-436.97388	-77.16939	567.16529	-424.91961	-242.95072	597.22543	-722.29932	-129.32789	515.21576	-746.44331	-308.61731	504.84137	-714.76825	-191.98755	428.13613	-707.08685	-217.34894	652.19210	-418.09696	-397.40911	727.11370	-484.41776	-232.66376	630.89488	-653.94052	-400.83062	724.72030	-580.60120	-59.66710	1086.18597	-548.16006	-17.51902	1030.17892	-403.87981	-30.65086	1003.27087	-696.63493	-23.87798	942.72136	-529.40719	-26.07103	936.40302	-557.39275	-5.90784	815.36701	-303.30890	-63.18320	703.85993	-319.05373	-15.23137	722.12385	-269.18229	112.77599	677.61135	-318.08585	192.20862	653.31795	-377.50897	191.40100	621.41437	-346.35214	-43.91311	803.04362	-809.95341	-89.75683	680.13187	-796.24441	-60.65760	700.68839	-852.68927	71.75020	641.30928	-819.62134	162.14899	612.73983	-771.23437	145.35761	572.15309	-781.80223	-310.44060	589.08775	-442.53243	-332.80209	587.66407	-631.88335	-306.13838	590.66976	-446.17838	-311.70592	586.77673	-602.64696	
228	2.27000000	14.01459	402.18436	-371.69597	-11.95323	376.60931	-344.08103	-238.38693	114.43723	-392.76453	-316.28845	85.87421	-443.22558	-145.71205	41.60047	-342.10332	-96.54869	52.59694	-394.25684	-4.76865	411.71006	-741.59443	1.31011	330.23956	-753.28722	-228.27481	109.62865	-727.41364	-304.58100	73.87328	-682.81470	-130.27020	41.46934	-764.15254	-82.17812	54.20446	-709.96263	-81.44030	282.84090	-342.18550	46.38042	340.10015	-378.79160	-23.40162	249.60904	-394.62700	-65.09190	390.41874	-759.51194	-137.18346	289.79035	-752.55802	-203.38873	577.19625	-340.10030	-105.86941	517.64903	-333.58512	-65.35712	545.75209	-362.63368	-172.71236	616.39204	-437.42709	-72.19018	570.29742	-425.45712	-238.35812	602.89910	-722.89639	-126.26642	518.88409	-747.25768	-305.57844	511.80972	-714.51693	-190.80638	432.50378	-706.31561	-212.18338	659.52587	-418.48051	-392.54839	735.39010	-484.74253	-228.63172	638.55615	-654.36028	-396.38669	732.96719	-580.94517	-60.03213	1098.16197	-549.28067	-17.63606	1042.57115	-404.42338	-29.96708	1015.11321	-697.59214	-21.53844	955.57879	-529.86413	-24.07934	949.04520	-557.51857	-9.73289	827.83336	-301.60535	-66.53677	716.79250	-316.37163	-19.26701	735.62669	-265.97786	109.77949	693.43732	-314.30640	189.74285	670.54859	-373.38752	189.64426	638.90538	-341.71294	-45.59204	815.22721	-811.90631	-91.14562	692.26034	-797.88877	-62.76529	712.96267	-854.97715	71.19191	656.87744	-821.31469	162.30220	630.45444	-771.71288	146.15890	589.59526	-783.44774	-305.95227	596.96266	-442.90265	-328.78549	595.62301	-632.19778	-301.46962	598.59220	-446.18497	-307.71611	594.65116	-602.68200	
229	2.28000000	15.62273	403.67971	-373.10531	-10.25999	378.50187	-344.83699	-237.44583	115.25905	-393.44897	-315.38496	88.04353	-443.55424	-145.40695	42.07541	-342.21292	-96.16344	52.65191	-394.52457	-3.78046	412.22527	-741.38171	2.02230	330.41202	-753.55556	-227.99470	110.23115	-727.66482	-304.33259	74.68119	-682.90763	-130.22499	41.49364	-764.16450	-82.09893	54.18481	-709.98684	-79.83860	284.34138	-343.24754	47.59175	341.43908	-380.09357	-22.30062	251.03298	-395.30570	-64.36692	390.40616	-759.23886	-136.59495	290.69621	-754.24968	-198.57468	583.07713	-340.71167	-102.02630	521.68392	-334.40955	-60.78184	549.23226	-363.42405	-166.79723	622.17959	-438.05991	-67.38878	573.88673	-425.86090	-233.55813	609.37397	-723.53317	-123.28739	523.04871	-748.04975	-302.57699	519.68888	-714.27181	-189.99820	437.81853	-705.90594	-207.21630	667.54728	-418.74890	-387.54085	744.51869	-484.72293	-224.29967	646.98615	-654.79040	-391.73391	742.15980	-580.96630	-60.54553	1111.04714	-550.24565	-18.23227	1056.29044	-404.92455	-29.46133	1027.59870	-698.64161	-19.36890	969.51839	-530.07398	-21.83047	963.05929	-558.37279	-14.00831	842.05792	-299.27040	-71.38904	731.47939	-312.41421	-24.48963	751.27034	-261.45478	105.42602	710.85870	-309.04337	185.92581	688.80059	-367.72295	186.42916	657.60870	-335.37316	-48.22338	828.24084	-813.95627	-93.83517	705.40580	-800.41157	-66.21062	726.60387	-858.13473	69.10978	673.27653	-824.21226	160.77011	648.72964	-774.28253	145.22631	607.61156	-786.67514	-301.48529	605.55022	-443.18295	-324.69338	604.52689	-632.43331	-296.86023	607.21733	-446.21045	-303.68064	603.37893	-602.79824	
